<mxfile host="app.diagrams.net" modified="2023-04-25T09:01:56.037Z" agent="Mozilla/5.0 (Windows NT 10.0; Win64; x64) AppleWebKit/537.36 (KHTML, like Gecko) Chrome/103.0.0.0 Safari/537.36" etag="vKWOe7fMvl7IiC76olUS" version="21.1.0" type="github">
  <diagram name="Page-1" id="c7558073-3199-34d8-9f00-42111426c3f3">
    <mxGraphModel dx="1434" dy="764" grid="1" gridSize="10" guides="1" tooltips="1" connect="1" arrows="1" fold="1" page="1" pageScale="1" pageWidth="826" pageHeight="1169" background="none" math="0" shadow="0">
      <root>
        <mxCell id="0" />
        <mxCell id="1" parent="0" />
        <mxCell id="on9RdGP8uAcjXOnkAn1e-110" value="" style="group;rounded=1;labelBackgroundColor=none;fontColor=#1D3557;" vertex="1" connectable="0" parent="1">
          <mxGeometry x="90" y="160" width="120" height="183" as="geometry" />
        </mxCell>
        <mxCell id="on9RdGP8uAcjXOnkAn1e-99" value="" style="image;aspect=fixed;html=1;points=[];align=center;fontSize=12;image=img/lib/mscae/HDInsight.svg;rounded=1;labelBackgroundColor=none;fillColor=#A8DADC;strokeColor=#457B9D;fontColor=#1D3557;" vertex="1" parent="on9RdGP8uAcjXOnkAn1e-110">
          <mxGeometry x="35" width="50" height="48" as="geometry" />
        </mxCell>
        <mxCell id="on9RdGP8uAcjXOnkAn1e-104" value="本地hdfs" style="rounded=1;whiteSpace=wrap;html=1;labelBackgroundColor=none;fillColor=#A8DADC;strokeColor=#457B9D;fontColor=#1D3557;" vertex="1" parent="on9RdGP8uAcjXOnkAn1e-110">
          <mxGeometry y="48" width="120" height="60" as="geometry" />
        </mxCell>
        <mxCell id="on9RdGP8uAcjXOnkAn1e-107" value="预定需要备份的表" style="rounded=1;whiteSpace=wrap;html=1;labelBackgroundColor=none;fillColor=#A8DADC;strokeColor=#457B9D;fontColor=#1D3557;" vertex="1" parent="on9RdGP8uAcjXOnkAn1e-110">
          <mxGeometry y="153" width="120" height="30" as="geometry" />
        </mxCell>
        <mxCell id="on9RdGP8uAcjXOnkAn1e-109" value="hdfs-auditlog" style="rounded=1;whiteSpace=wrap;html=1;labelBackgroundColor=none;fillColor=#A8DADC;strokeColor=#457B9D;fontColor=#1D3557;" vertex="1" parent="on9RdGP8uAcjXOnkAn1e-110">
          <mxGeometry y="120" width="120" height="30" as="geometry" />
        </mxCell>
        <mxCell id="on9RdGP8uAcjXOnkAn1e-111" value="" style="group;rounded=1;labelBackgroundColor=none;fontColor=#1D3557;" vertex="1" connectable="0" parent="1">
          <mxGeometry x="330" y="160" width="120" height="140" as="geometry" />
        </mxCell>
        <mxCell id="on9RdGP8uAcjXOnkAn1e-97" value="Internet" style="outlineConnect=0;dashed=0;verticalLabelPosition=bottom;verticalAlign=top;align=center;html=1;fontSize=12;fontStyle=0;aspect=fixed;shape=mxgraph.aws4.resourceIcon;resIcon=mxgraph.aws4.internet;rounded=1;labelBackgroundColor=none;fillColor=#A8DADC;strokeColor=#457B9D;fontColor=#1D3557;" vertex="1" parent="on9RdGP8uAcjXOnkAn1e-111">
          <mxGeometry x="20" width="60" height="60" as="geometry" />
        </mxCell>
        <mxCell id="on9RdGP8uAcjXOnkAn1e-108" value="aliyunPopen&lt;br&gt;service" style="rounded=1;whiteSpace=wrap;html=1;labelBackgroundColor=none;fillColor=#A8DADC;strokeColor=#457B9D;fontColor=#1D3557;" vertex="1" parent="on9RdGP8uAcjXOnkAn1e-111">
          <mxGeometry y="80" width="120" height="60" as="geometry" />
        </mxCell>
        <mxCell id="on9RdGP8uAcjXOnkAn1e-112" value="" style="group;rounded=1;labelBackgroundColor=none;fontColor=#1D3557;" vertex="1" connectable="0" parent="1">
          <mxGeometry x="550" y="160" width="211" height="117" as="geometry" />
        </mxCell>
        <mxCell id="on9RdGP8uAcjXOnkAn1e-103" value="oss-hdfs" style="rounded=1;whiteSpace=wrap;html=1;labelBackgroundColor=none;fillColor=#A8DADC;strokeColor=#457B9D;fontColor=#1D3557;" vertex="1" parent="on9RdGP8uAcjXOnkAn1e-112">
          <mxGeometry x="17" y="57" width="120" height="60" as="geometry" />
        </mxCell>
        <mxCell id="on9RdGP8uAcjXOnkAn1e-105" value="" style="group;rounded=1;labelBackgroundColor=none;fontColor=#1D3557;" vertex="1" connectable="0" parent="on9RdGP8uAcjXOnkAn1e-112">
          <mxGeometry width="211" height="57" as="geometry" />
        </mxCell>
        <mxCell id="on9RdGP8uAcjXOnkAn1e-98" value="" style="image;aspect=fixed;html=1;points=[];align=center;fontSize=12;image=img/lib/mscae/WebHosting.svg;rounded=1;labelBackgroundColor=none;fillColor=#A8DADC;strokeColor=#457B9D;fontColor=#1D3557;" vertex="1" parent="on9RdGP8uAcjXOnkAn1e-105">
          <mxGeometry x="154" width="57" height="57" as="geometry" />
        </mxCell>
        <mxCell id="on9RdGP8uAcjXOnkAn1e-101" value="" style="shape=image;verticalLabelPosition=bottom;labelBackgroundColor=none;verticalAlign=top;aspect=fixed;imageAspect=0;image=data:image/png,iVBORw0KGgoAAAANSUhEUgAAAJoAAAAmCAYAAAA894IZAAAP5UlEQVR4nO2beXRUVZ7HP+/Vq33Jvm9VFdmSEMImhEBkB7EVBKXdEAQRbXVGu3ucxr3tcbSxFRHUQ7ugR4897hvuEGjtiICgAlkgIanse5G1KrW++QMsUiQoEEz3nKnPOXVOnXfr/u7vvvt99/7u774SssZOkAkR4hdG/Gc7EOL/ByGhhRgSQkILMSSEhBZiSAgJLcSQEBJaiCEhJLQQQ0JIaCGGhJDQQgwJ0vk0JooigiD0u+73+5Hl4AMIQRAQxf46l2UZv99/Pt0K8S/AoIWmVCrJGZPN7JkziY2N6Seeffv38977H9LZ1RV0PSY6mlU3rCA+Pi7ous/no66+ng8+/Iiy8vKfbFuj0ZCYmIBWo6Wuvp729vZAmUKhwGoxo1SqKCsvR6lUkpiQgNvtoq6+AY1GgzktlWPH2qlvaDjn/qempKDVamhoaOzXx/OByWQiPi6W7u4emlta8Hq9ACglCbPZjNvtpqGxEbfbfd7b/pHo6ChiYmJoa22juaXlnGwoYhMSHzxXByRJYsH8edx/z1rGjxuL1WLBnJYW+Gg1Gj7+9DOOlJf3m9Gcvb2kWy0sXbIYq8UcqGO1mMnKzGD+3NlUVNqoqq4+bfsTxo3jvrv/wHXXXI2kkNi9Z2+gzGAwsP4v67j2mqv4cOtHpKYkc9/daxk5cgR79u5l5PDhbNqwHq1Ww9ff7O7n35lyz9r/5JpfL6W6poZKW9U52RgInU7HLTfdyH33rGXpksUsWngZmRkZlJcfpb29nYjISB575GFGj87i4KEiOjo7z1vbp3L5woXc84e78Hl97Pvuu3OyMagZLTEhgd/d+e9ERkQA4PV6cblcHGtvZ/eevWz9+BN+OHBwwKXQ7/fz6mv/Q21tHfPnzmFMdjYmkwm1WoVSqSQyMpK7fvdbKioqqK2r71dfEAQsljRSU1LQ6/VclD+Njc88G9SWTqfDaDAgiCIej4c2u5329g78fhlRIWIw6FGp1IO5BWjUanR6HaJCMSg7fTEYDNx/z1rmzp6Fw+Ggvb0DjUbDjIvyGTF8GKtvvhWfz4dOp0Oj0SCI/cOV84lSKWHQG1AqledsY1BCmzE9PyCyNrudL7Ztp2Dn3zl48BDdPT0/W9/r9bKtYAfbd+wkMjKCsTk5zJszm/xpU9FptURFRjIldzJvvPVOv7oGvR6L2YxCknA4nVgtZtJSU047q5QePsKdv78LWZbx+XyD6fYviiAIzJszm8mTLqSi0sZ//3kdBw8VERcby6oblrNg/jzuuP1Wnnhq4z/b1bNiUEJLSU4OfN+2vYBNz26mo6PjrO3Iskxbm51t2ws4cOAgyUlJZGVmIEkKoiKjBqwTHR2N1WLBZrPRZreTl5vL+HHjTiu0sLAwMkaNxOFwUFxcErguSQrMaamkJCcjAxUVldTW1QXVTUpMPBHvKWlqbqai0obT6Qz6jV6nY0z2aKKioujs7KSkpJQehyNQrlKpSLdaiY+Pw+N2Y6uqpqGxsZ/olUqJzIxRmIxGHvnzY3y7bz8A1TU1/O31Nxg+bBijR2eh1WgG7KfVYiE5OQmA2to6qmtq8Hq9qNVqsjIzUEpKiktL6Tyx1IaFhTFxwnhqa+soP3oUr9dLRHg4I0eOQKPR0NDQgFqlBgb3NtmghKY4sVzIskxDYyOOPjf2XGlpbcV+7FggZhpoFwsQGxuDxWzmq8JCiktKycvNZeL4cbz97nsDxlspyUmsuXEVtXV1rLOtD9jOyszgP357J+lWCzJQVl7OlpdfYd/+7xAEgSmTJ7H0iiUMHzYMhUJBS2sLn36+jQ+2bqWj4/hg6XU6fnXJAsJMxhNC66Lw6108/+IW2js6MBgMLF60kDmzZhIXF4vH46GsrJzX33yLvfv2BwJ8AKVShV6vRxRFysqPBvWh0mZj0zPPYjAa8Z4iUFEUueTi+Sy67NKA0Gpqannvgw/56JNPMej1XHv1VRgNBh5/ckNAaEmJiay96/d8uPVjnnuxloT4eG5Zs5rs0Vlo1BrqG+oBAWkQyyacx/TGQIMrSRJqtfq0YpFlmZ4BllhZ/un0hlKSSEtNJTw8jJKSUgp37cLlcjFs2DAiIiKw2+0D+hIeHkZHRwfiCX9EUSQpMYmq6hpee/1N8nInkz91KpIkYauqJiY6ilUrV2C1WNj83Av09PSwYP48Vq64npbWVr7Yth0AvV5PanIy2woKcDicLFm8iCuXXI7dbuelV15l/tw5rFh2Lbaqap58ahOJCQksXrSQm29aTcNDf8JWdXLDI5z4AP1iW5fLTeGubwCIjYkJKsuddCF33H4bRqOB3Xv2IgPjx+ZgNqdhq6qiqakZk9GIyWRCoTg57JIkERUZiV6vQ5Ikbly5ggXz51FRWcl7H3xIakoK0/OnoZQGJ5Xzmkc7lfypefzm5pswmUwDlnd1dbN81Wq6u7vPyq5WqyVj1Ejsdju26mrq6xs4fKSMhIR4hg+7gG927zljW9/98D2Pr99AU3Mz773/AX979WXSLRZGjhhOmMmEgMBTm57hg60fIcsyLa2trL3r91w8by6FhV8D4HA4eOe993nplVeRZZnDZWU8se5RcidP4uPPPiM1JZmaujoeeOi/qKuvR61WIQgCa1avIisri+qa2kHlDgUEFl52KTEx0Tz/4ks8v+UlBEFg5YrrWXbN1Vy19Eo2bHz6Z+1ER0cxccJ4/H4/9z34EEfKylGpVIHZcjD8okJTSBI6rQ69Tjdgud/vD8wuZ4NOpyMrM4Pqmlra2uyIoshXhYXccP0yMjNGnbHQfH4/jY1NgVipvaOD0tLDjMnODqRmPt+2HY1GE+iDy+Wiq6ub5KREpBNPeY/DQaXNhsvlAuDAgYP4fD60Wi093T2sf2oTKpUKtUqF0WAAoKu7C6/PR0J8PKIoDkpoKpWS2JgYBEFgW8GOQAizf/93LLrsUsxpqWdkR6NWIykkurq7OXykDK/Xi8fjoaLShsfjOWf/4BcWWmHh1xwqKhrwBACOC+1MdqenEhsbizktjeKSUiZNnEBWZgY67fGt/ojhw9FqtWdmSJY5dcXvGwKYjEZmzZzB5YsuIzwsDL9fRq1WER0VRU1tbZ9KwaGyv48NQRRIS01h8eWLmJY3BUEQARmj0YhWo+EcnrMBEALhid9/Mnbz+f0c7+DZN9L3PsiyPMitwHkUmjBAZxxOJ45Tdmdnau2nGJuTjUqlYnRWJlmZGUFlSYkJJCUl0tTUfA7tnkSSJObOmc2tN6+hpraWjz7+FLfHQ2xMDLNmTD9jO9FR0axcfj3TL8rny3/8g4qKSmRZJjMzg+n5036y7qkiVChEEuITUKvV52XjNZQMSmh9d4bhEeGoVapBT7EGg4EwkzHwhA70LE2ZPJnm5hY++ewzGhqbAgOSP3UqVosFS1raGQvt1MH8sd2IiAjGjc1BpVax8eln2btvHwAZo0YxJns0Gk2fRK8Q/GgIwkk76VYLOTnZFBUXs37DRlpaWwFYvGgh0/Km9PPH5/fh8XiRZZkwU1hQWWREJGtWryI2JoZHH3s8cF1GDoyFok/iWKFQgCAE3cPjvp2+/ye6E7SBE4SBppGzY1BC6zuYs2fOoK3NTsGOHdTW1Z91zKFSKbFarPzqkouxWq3A8am/65TzQ6PRSFZmBqWHj/Da62/Q3Hzy7K2zs4sH7r0bs9nMt/t//qhEFEUiIiIIDwujzW5HpVJhMZtP+C6j1WgQBYE2extw/IZHR0cRHR0VtIHRajTEx8UhCAKyLJNusSKKIm6PG6VKiUatweF0BsIEnVZLUmLCgJl2l8tNbV0dLpeLXy+9guKSEnpdLiRJYuaM6UzPz6exqZHe3t5AHa/HS3tHB7IsM2H8eIqKSxBFkRHDhqHT6WhpacUv+3G53YSHh2MymgK+pqWmBkIbj8eDX/aj1WpJSkykqroaSZJITIgPxKPnyqBq7/zyK1bdsDzg2G23rOHGlSs4fOQIBQU72fnlV9Q3NPzkOWK61cqsGdO5KH8aaamp6HTawAB0d3Wz99t9Qb/PGZONTqejuqaGpqbmIEGXlB7G6XRiTksl7DQ73b4IgsCkiRP4t9t+w67de5gzcwYWi5my8nK+2b2X1JQU8qbk8sC9d7Pp2c1ERESwYtl1xMXFBQnNYDCw9MolKCQFPT0Oli+7Fp/PR2npYSorbTQ0NTItbwqrV93A9oId5OXmcsWSxUGzz4/4/X4+376d2bNmMHf2LOLj4ti1ezepySnkTZmMXq/jqU3PBCV6/bKfz7/YxvT8aaxeuYIL0q3IsszUvCloNRpef/MtHD0ODh0qYuqUXG5ZsxqTyYhWq+XWm9cEZq+W1lYqbVUkJiTwpwfv56133iXdamH2zBmDOn6CQQqt0mbjry9s4cYTYlOr1ajVai6cMIELJ0zgyisW88i6v7Bn77f9xCaKIgvmz+OP99+LSqUKKvP7/fT29vLci1s4fKQsqCx38iTsx45RVFzcb9bs6OigqLiEpMREoqOi6O3txeFwIMt+/D4/TmcvbrcbmeNvifT09NDd3UPelFwuWXAxAPZjx9j83AtU2my8/e77pKenk5M9ms1PbwzsTFtaWujtdSEDbrf7eG5OFFlz4yqUSiU+v5/vDxzg+S0v097ezjvvvs+a1atYft21LF92HU6Hk67ubiSFAq/Hy6kcPVrBw4+u44F77mbUyBFkZWYgyzKdnV2se3w9hbu+ISoykt7eXtwuF7Jf5pPPPsdqsXDNVUtZMH8eMuB0OHlm818D9//TL74gKyuTiePH8/BDD+L1+qhvqMdg0OP2ePB4vDzx5AZSU5IZNWokD9x7N06nk47OTlQqFV5ff1/PFGGw/1TX6/XMmjGdObNmEhkZidjngFeWZQp2/J3X33q73xIYHR3FHbffhtViCYoTfD4/jU1NbP3oY3Z++VW/9saNzUGv11NcXELbKYlZpVLJsAvSiYiI4EhZGekWKzqdlq93fYNao2HUiOE4nE5KSg9j0OsZOzaH5uYWRFFkwvixIMNXhV8HvZ4UEx3NtKl5JCUm0NDYxA8HDmA0GJGUEt99/wOjRo7AaDTS1NSE1WLBarXQ2NjEF9sLAsloURTJzBjFpAsnolarKSouobq6mpSUFKqqqqmqrh5w1g8PD2NaXh7JSUl0dHby7b59HK2oxOfzoVarGZszht7eXo4cKQtsunLGZDN+3PG+7P/+ew4VFQfFzbExMUzJnUx8fBwVFZV8/8MBMjMzqKuvp6KiEq/XS3RUFLNnzcRkNHKoqIhWu52E+HhqamqoqLSdhTpOMmih/YhGo0Gn1SKcksrw+bx0dXX3O9NTqU4etfTF7/PR3dONZ4AnPcT/Xc5beqO3tzcoQP053G73L/qyXoh/LUL/GQgxJISEFmJICAktxJAQElqIISEktBBDQkhoIYaEkNBCDAkhoYUYEkJCCzEk/C8U0zx7tbsWGQAAAABJRU5ErkJggg==;rounded=1;fillColor=#A8DADC;strokeColor=#457B9D;fontColor=#1D3557;" vertex="1" parent="on9RdGP8uAcjXOnkAn1e-105">
          <mxGeometry y="19" width="154" height="38" as="geometry" />
        </mxCell>
        <mxCell id="on9RdGP8uAcjXOnkAn1e-117" style="edgeStyle=orthogonalEdgeStyle;shape=flexArrow;rounded=1;orthogonalLoop=1;jettySize=auto;html=1;exitX=1;exitY=0.5;exitDx=0;exitDy=0;entryX=0;entryY=0.5;entryDx=0;entryDy=0;labelBackgroundColor=none;fontColor=default;strokeColor=#457B9D;" edge="1" parent="1" source="on9RdGP8uAcjXOnkAn1e-108" target="on9RdGP8uAcjXOnkAn1e-103">
          <mxGeometry relative="1" as="geometry" />
        </mxCell>
        <mxCell id="on9RdGP8uAcjXOnkAn1e-123" style="edgeStyle=orthogonalEdgeStyle;shape=flexArrow;rounded=1;orthogonalLoop=1;jettySize=auto;html=1;exitX=0;exitY=0.5;exitDx=0;exitDy=0;labelBackgroundColor=none;fontColor=default;strokeColor=#457B9D;" edge="1" parent="1" source="on9RdGP8uAcjXOnkAn1e-108" target="on9RdGP8uAcjXOnkAn1e-109">
          <mxGeometry relative="1" as="geometry" />
        </mxCell>
      </root>
    </mxGraphModel>
  </diagram>
</mxfile>
